<svg width="469" height="121" viewBox="0 0 469 121" fill="none" xmlns="http://www.w3.org/2000/svg">
<path d="M0.25 4.125C9.66667 4.45833 17.0833 4.625 22.5 4.625C30.375 4.625 37.4167 4.45833 43.625 4.125C43.7917 4.79167 43.875 5.25 43.875 5.5C43.875 5.95833 43.7917 6.47917 43.625 7.0625C38.125 7.22917 34.3958 7.64583 32.4375 8.3125C30.5208 8.9375 29.5625 10.0417 29.5625 11.625C29.5625 11.6667 29.8542 12.7083 30.4375 14.75L56.4375 75.125H57.0625L81.4375 13.9375C81.6875 13.3125 81.8125 12.5 81.8125 11.5C81.8125 10.125 81.0625 9.14583 79.5625 8.5625C78.0625 7.97917 75.4792 7.47917 71.8125 7.0625C71.6458 6.14583 71.5625 5.58333 71.5625 5.375C71.5625 5.04167 71.6458 4.625 71.8125 4.125C77.1875 4.375 82.0417 4.5 86.375 4.5C91.125 4.5 95.875 4.375 100.625 4.125C100.792 4.625 100.875 5.04167 100.875 5.375C100.875 6.04167 100.792 6.60417 100.625 7.0625C97.5 7.35417 94.8958 8 92.8125 9C90.7708 9.95833 89.1875 11.6042 88.0625 13.9375L54.25 97.8125H51.3125L15 14.75C13.0833 10.375 8.16667 7.8125 0.25 7.0625C0.0833333 6.3125 0 5.79167 0 5.5C0 5.08333 0.0833333 4.625 0.25 4.125ZM238.125 4.125C247.458 4.45833 254.917 4.625 260.5 4.625C270.917 4.29167 277.312 4.125 279.688 4.125C283.562 4.125 287.208 4.29167 290.625 4.625C294.042 4.95833 297.562 5.58333 301.188 6.5C304.854 7.375 308.167 8.54167 311.125 10C314.083 11.4167 316.917 13.3125 319.625 15.6875C322.333 18.0625 324.604 20.8125 326.438 23.9375C328.271 27.0625 329.729 30.8333 330.812 35.25C331.896 39.625 332.438 44.4792 332.438 49.8125C332.104 54.9375 331.208 59.6458 329.75 63.9375C328.333 68.2292 326.5 71.9375 324.25 75.0625C322.042 78.1875 319.417 80.9792 316.375 83.4375C313.333 85.8958 310.146 87.8958 306.812 89.4375C303.521 90.9792 299.938 92.25 296.062 93.25C292.229 94.25 288.479 94.9583 284.812 95.375C281.188 95.7917 277.438 96 273.562 96C257.938 96 246.083 96.125 238 96.375C237.833 95.875 237.75 95.4583 237.75 95.125C237.75 94.8333 237.833 94.2708 238 93.4375C239.25 93.3125 240.25 93.2083 241 93.125C241.75 93.0417 242.771 92.8958 244.062 92.6875C245.396 92.4792 246.458 92.25 247.25 92C248.083 91.7083 248.938 91.3542 249.812 90.9375C250.688 90.5208 251.333 90.0208 251.75 89.4375C252.208 88.8542 252.438 88.1875 252.438 87.4375C252.938 74.3958 253.188 61.25 253.188 48C253.188 34.5 252.979 22.8542 252.562 13.0625C252.521 11.9792 252.042 11.0625 251.125 10.3125C250.208 9.52083 248.875 8.91667 247.125 8.5C245.417 8.08333 243.958 7.79167 242.75 7.625C241.583 7.41667 240.042 7.22917 238.125 7.0625C237.958 6.3125 237.875 5.79167 237.875 5.5C237.875 5.25 237.958 4.79167 238.125 4.125ZM267.188 13.0625C266.646 27.2292 266.375 40.4167 266.375 52.625C266.375 59.375 266.604 72.2917 267.062 91.375C268.854 91.4583 271.417 91.5 274.75 91.5C281.5 91.5 287.5 90.4792 292.75 88.4375C298 86.3542 302.312 83.4583 305.688 79.75C309.062 76.0417 311.604 71.6667 313.312 66.625C315.062 61.5417 315.938 55.9375 315.938 49.8125C315.938 46.6458 315.688 43.5417 315.188 40.5C314.688 37.4583 313.896 34.3542 312.812 31.1875C311.729 28.0208 310.229 25.1042 308.312 22.4375C306.396 19.7708 304.104 17.3958 301.438 15.3125C298.812 13.1875 295.562 11.5417 291.688 10.375C287.854 9.16667 283.604 8.5625 278.938 8.5625C274.646 8.5625 270.729 8.83333 267.188 9.375V13.0625ZM390.188 3.1875C390.812 2.72917 391.479 2.4375 392.188 2.3125L426.375 87.6875C426.792 88.7292 427.479 89.625 428.438 90.375C429.396 91.0833 430.583 91.6458 432 92.0625C433.458 92.4375 434.708 92.7292 435.75 92.9375C436.833 93.1042 438.146 93.2708 439.688 93.4375C439.854 94.1042 439.938 94.6667 439.938 95.125C439.938 95.625 439.854 96.0833 439.688 96.5C430.688 96.1667 423.958 96 419.5 96C414.667 96 407.667 96.1667 398.5 96.5C398.333 96 398.25 95.5 398.25 95C398.25 94.4583 398.333 93.9375 398.5 93.4375C406.917 92.5208 411.125 90.9375 411.125 88.6875C411.125 87.9792 411.042 87.25 410.875 86.5L401.812 63.25C399.062 63.1667 395.354 63.125 390.688 63.125C388.479 63.125 382.75 63.2083 373.5 63.375L363.938 87.6875V88.4375C363.938 88.8542 364 89.25 364.125 89.625C364.292 90 364.542 90.3333 364.875 90.625C365.25 90.9167 365.604 91.1667 365.938 91.375C366.271 91.5833 366.729 91.7917 367.312 92C367.938 92.1667 368.458 92.3125 368.875 92.4375C369.333 92.5208 369.938 92.625 370.688 92.75C371.479 92.875 372.083 92.9792 372.5 93.0625C372.917 93.1042 373.521 93.1667 374.312 93.25C375.146 93.3333 375.729 93.3958 376.062 93.4375C376.229 94.1042 376.312 94.6667 376.312 95.125C376.312 95.375 376.229 95.8333 376.062 96.5C366.729 96.1667 361.479 96 360.312 96C358.062 96 352.271 96.1667 342.938 96.5C342.771 96 342.688 95.5 342.688 95C342.688 94.4583 342.771 93.9375 342.938 93.4375C351.604 92.4375 356.542 90.3125 357.75 87.0625L384.625 19.3125L383.25 15.625C385.625 14.0417 387.271 12.3333 388.188 10.5C389.146 8.66667 389.812 6.22917 390.188 3.1875ZM390.688 58.25C394.521 58.25 397.542 58.2083 399.75 58.125L387.875 27.375H387.625L375.688 58C379.604 58.1667 384.604 58.25 390.688 58.25Z" fill="black"/>
<g clip-path="url(#clip0_18_2)">
<path d="M169.738 20.9694C171.55 20.528 172.645 18.771 172.18 17.0477C171.715 15.326 169.868 14.2872 168.057 14.7256C166.242 15.1672 165.15 16.9227 165.617 18.6473C166.08 20.3721 167.926 21.4093 169.738 20.9694Z" fill="black"/>
<path d="M153.34 61.9312C153.867 62.1417 154.462 62.2507 155.106 62.2507C156.248 62.252 157.56 61.9049 158.875 61.1838C160.139 60.4922 161.399 59.4591 162.521 58.0935C162.482 58.0493 162.439 58.0037 162.397 57.9567C161.182 56.5527 160.506 54.6367 160.441 52.4178C159.593 53.0078 158.762 53.4816 157.953 53.8393C156.604 54.4369 155.31 54.7224 154.108 54.7224C153.14 54.7224 152.237 54.5369 151.434 54.1866C151.256 54.1085 151.085 54.0233 150.917 53.9276C150.705 54.9768 150.604 55.9216 150.604 56.7529C150.604 58.2644 150.923 59.4134 151.41 60.2449C151.901 61.0793 152.552 61.612 153.34 61.9312Z" fill="black"/>
<path d="M143.949 65.9001C144.475 66.2578 145.027 66.4624 145.618 66.5168C145.716 66.5272 145.812 66.53 145.906 66.53C146.537 66.53 147.105 66.3417 147.653 66.0208C148.199 65.7013 148.707 65.2438 149.136 64.7507C149.996 63.7722 150.537 62.6701 150.647 62.4344C150.66 62.402 150.667 62.3844 150.667 62.3844C150.677 62.3757 150.681 62.3668 150.686 62.3594C150.019 61.7001 149.498 60.8584 149.162 59.8681C148.852 58.9572 148.688 57.9198 148.688 56.7527C148.688 56.0288 148.753 55.2547 148.883 54.4291C147.774 55.0664 146.756 55.5666 145.815 55.9405C144.357 56.5233 143.081 56.8101 141.949 56.8132C141.747 56.8132 141.55 56.8012 141.363 56.7823C141.211 57.5916 141.14 58.3833 141.14 59.1455C141.139 60.7068 141.436 62.1343 141.943 63.3012C142.449 64.4697 143.161 65.3615 143.949 65.9001Z" fill="black"/>
<path d="M160.546 44.8453C160.546 43.8989 160.668 42.8689 160.921 41.7579C158.852 42.454 156.978 42.7806 155.31 42.7806C153.882 42.7806 152.602 42.5349 151.505 42.0756C151.505 42.2433 151.457 42.414 151.356 42.5642C150.098 44.4154 149.56 46.2637 149.56 47.8589C149.56 48.9892 149.832 49.9927 150.298 50.7859C150.765 51.5805 151.42 52.1735 152.235 52.5297C152.777 52.765 153.397 52.9006 154.108 52.9006C154.985 52.9006 156.005 52.6901 157.142 52.1854C158.278 51.6851 159.53 50.8875 160.859 49.7324C161.157 49.4747 161.589 49.4206 161.947 49.5971C161.967 49.6074 161.988 49.6221 162.012 49.6339C161.622 49.1337 161.298 48.5656 161.062 47.9269C160.723 47.0247 160.546 45.996 160.546 44.8453Z" fill="black"/>
<path d="M164.286 39.0841C164.918 39.3475 165.67 39.4947 166.562 39.4947C167.821 39.4977 169.365 39.1887 171.164 38.4735C167.889 36.7311 164.656 34.4151 161.719 31.4071C161.5 32.3047 161.394 33.1641 161.394 33.9602C161.394 34.9139 161.547 35.7746 161.83 36.5076C162.114 37.2434 162.524 37.8466 163.051 38.3189C163.404 38.6338 163.811 38.8913 164.286 39.0841Z" fill="black"/>
<path d="M213 84.2664C213 84.2664 211.657 81.7721 208.882 79.7415L208.887 79.7194L208.85 79.715C205.746 77.4549 200.871 75.7831 194.1 78.7998C196.516 74.7779 196.907 70.6061 196.591 67.1965C196.619 67.1039 196.647 67.0067 196.672 66.9125L196.559 66.8847C196.112 62.7288 194.648 59.783 194.648 59.783C194.648 59.783 183.692 60.8262 180.955 69.1627C177.668 85.8338 152.192 87.3936 159.254 67.31C159.254 67.31 159.042 78.0172 162.052 78.5393C156.647 71.9776 174.083 71.0858 185.176 53.5201C188.22 55.2477 191.253 56.6442 193.675 57.6655C196.647 58.9163 198.699 59.5961 198.716 59.6019L199.889 59.9907L199.988 58.8149V58.8119C199.994 58.7532 200.141 57.1654 200.658 55.576C200.915 54.7813 201.268 53.9882 201.695 53.4011C201.905 53.1054 202.137 52.864 202.371 52.6859C202.605 52.5094 202.843 52.3946 203.1 52.3328L204.308 52.0445L203.705 51.0057C203.168 50.0815 202.965 49.203 202.965 48.348C202.965 47.6152 203.118 46.897 203.361 46.2114C203.726 45.18 204.296 44.235 204.808 43.4641C205.065 43.0784 205.308 42.7357 205.511 42.4325C205.61 42.281 205.698 42.1397 205.782 41.9983C205.859 41.8528 205.932 41.7115 205.987 41.5128L206.39 39.975L204.793 40.4135C200.432 41.6069 196.704 42.3088 193.545 42.6885C193.224 42.7592 192.888 42.8283 192.531 42.8827C191.496 43.0432 190.323 43.1271 189.04 43.1271C185.144 43.1256 180.204 42.3427 175.101 40.3018C174.507 40.0663 173.913 39.8103 173.317 39.5364C170.758 40.7519 168.511 41.317 166.563 41.3214C165.309 41.3244 164.18 41.0772 163.213 40.6195C162.689 42.2484 162.465 43.6625 162.465 44.8458C162.465 46.3042 162.801 47.4136 163.327 48.2363C163.852 49.0543 164.568 49.6005 165.447 49.9285C166.03 50.1433 166.693 50.2551 167.411 50.2551C169.258 50.2581 171.471 49.487 173.494 47.8829C173.899 47.5591 174.504 47.612 174.843 47.9992C175.184 48.3861 175.128 48.96 174.719 49.2822C172.406 51.1129 169.809 52.0767 167.411 52.0797C166.018 52.0797 164.686 51.747 163.569 51.0466C163.146 50.7833 162.756 50.4667 162.41 50.1033C162.458 50.2329 162.478 50.3771 162.458 50.5182C162.387 51.0555 162.353 51.5704 162.353 52.0619C162.353 53.5953 162.685 54.8902 163.244 55.8909C163.806 56.8945 164.582 57.6038 165.537 58.0276C166.176 58.3087 166.901 58.4648 167.719 58.4662C168.747 58.4662 169.924 58.2176 171.218 57.6509C172.511 57.0845 173.915 56.1999 175.384 54.9404C175.777 54.6021 176.38 54.6314 176.736 55.0052C177.092 55.3762 177.059 55.9557 176.666 56.2943C175.083 57.6542 173.523 58.6475 172.023 59.3066C170.522 59.9672 169.072 60.2879 167.719 60.2879C166.644 60.2879 165.633 60.082 164.73 59.6832C164.468 59.5654 164.218 59.4329 163.976 59.2874C162.724 60.7883 161.307 61.9597 159.829 62.7647C158.274 63.6166 156.654 64.0726 155.106 64.0742C154.272 64.0757 153.454 63.9374 152.699 63.649C152.727 63.758 152.751 63.8713 152.781 63.9859C152.983 64.785 153.319 65.7959 153.797 66.5994C154.115 67.1378 154.492 67.5705 154.874 67.8177C155.095 67.9589 155.314 68.0474 155.557 68.09C156.078 68.1783 156.425 68.6506 156.332 69.1464C156.242 69.6424 155.742 69.9735 155.226 69.8866C154.871 69.8263 154.551 69.7041 154.249 69.5586C154.309 69.1642 154.336 68.9037 154.337 68.8889C154.381 68.3857 153.986 67.9458 153.457 67.9045C153.132 67.8795 152.847 68.0222 152.654 68.2444C152.101 67.5425 151.701 66.7449 151.407 65.9766C151.312 65.7266 151.229 65.4822 151.151 65.2438C150.936 65.535 150.692 65.8353 150.418 66.1312C149.974 66.6094 149.451 67.0774 148.839 67.4657C148.025 67.9778 147.029 68.3545 145.907 68.3516C145.753 68.3516 145.598 68.3458 145.437 68.3325C144.94 68.2884 144.47 68.1514 144.016 67.9763C143.99 67.7776 143.939 67.5599 143.928 67.3744C143.9 66.8712 143.447 66.4855 142.921 66.5149C142.39 66.5414 141.988 66.9711 142.017 67.4745C142.062 68.294 142.231 69.1873 142.498 70.0893C142.221 70.497 141.89 70.8971 141.438 71.2444C140.705 71.8184 139.712 72.2275 138.492 72.326H138.491C138.355 72.3362 138.223 72.3421 138.093 72.3421C137.225 72.3451 136.426 72.089 135.775 71.6549C135.12 71.2268 134.613 70.6395 134.206 69.9788C133.401 68.6546 132.963 67.0107 132.719 65.3583C132.564 64.2591 132.499 63.1538 132.499 62.1414C132.499 62.05 132.501 61.9618 132.502 61.8735C131.954 61.6852 131.459 61.3877 131.031 61.017C130.384 60.4636 129.875 59.7455 129.471 58.9186C128.668 57.2675 128.273 55.1735 128.272 52.8883C128.272 50.7575 128.624 48.4632 129.372 46.2339C129.115 45.9117 128.887 45.554 128.696 45.1656C128.114 43.984 127.803 42.524 127.801 40.9584C127.801 39.7633 127.987 38.5052 128.394 37.2648C128.804 36.0243 129.44 34.8029 130.345 33.695C130.672 33.299 131.272 33.227 131.691 33.5375C132.111 33.8452 132.185 34.4175 131.86 34.8148C131.108 35.7361 130.571 36.7588 130.224 37.8124C129.878 38.8631 129.718 39.9431 129.718 40.9586C129.718 41.9563 129.875 42.8937 130.136 43.6706C130.396 44.4506 130.772 45.0642 131.161 45.432C131.418 45.6807 131.667 45.819 131.902 45.8778C132.163 45.9454 132.445 45.9778 132.747 45.9778C133.318 45.9808 133.963 45.8573 134.63 45.6394C135.3 45.4246 135.982 45.1169 136.635 44.7668C137.604 44.2517 138.502 43.6469 139.181 43.1451C138.488 42.6123 137.906 41.9398 137.511 41.1278C137.112 40.3095 136.898 39.3708 136.898 38.3275C136.901 36.7279 137.392 34.8972 138.46 32.8151C138.692 32.3603 139.264 32.175 139.738 32.3942C140.218 32.6149 140.414 33.1609 140.184 33.6154C139.206 35.5152 138.816 37.0898 138.816 38.3275C138.816 38.9322 138.909 39.4576 139.068 39.9196C139.229 40.3774 139.456 40.7718 139.741 41.1162C140.314 41.8019 141.137 42.2977 142.15 42.5936C142.827 42.7878 143.585 42.891 144.386 42.891C146.22 42.8925 148.269 42.3524 150.044 41.2973C150.055 41.29 150.069 41.2871 150.079 41.2782C149.091 40.563 148.353 39.6182 147.908 38.5323C147.56 37.6759 147.388 36.74 147.388 35.7556C147.388 34.7858 147.558 33.7675 147.891 32.7286C146.567 33.0139 145.356 33.148 144.253 33.1495C142.251 33.1495 140.598 32.7051 139.325 31.9149C138.05 31.132 137.185 30.0181 136.709 28.7908C136.395 27.9725 136.245 27.1088 136.245 26.2406C136.245 24.8043 136.646 23.3594 137.387 22.0923C137.644 21.6509 138.227 21.4917 138.692 21.7391C139.153 21.9835 139.32 22.5367 139.061 22.9767C138.478 23.9728 138.162 25.1296 138.162 26.2406C138.162 27.2484 138.419 28.2109 138.942 29.0115C139.47 29.8104 140.248 30.461 141.401 30.8787C142.172 31.1569 143.114 31.3247 144.253 31.3247C145.611 31.3247 147.245 31.0879 149.17 30.5197C149.447 30.4375 149.743 30.483 149.98 30.6272C149.197 29.9178 148.641 29.0409 148.31 28.0917C148.024 27.2808 147.894 26.42 147.894 25.5489C147.894 23.8758 148.372 22.151 149.252 20.6206C149.508 20.1792 150.091 20.0172 150.553 20.2588C151.018 20.5014 151.19 21.0564 150.934 21.4963C150.202 22.7618 149.806 24.2083 149.809 25.5489C149.809 26.3332 149.944 27.0808 150.21 27.7355C150.476 28.3918 150.876 28.9556 151.406 29.4057C151.765 29.7074 152.186 29.962 152.692 30.1577C153.364 30.4225 154.185 30.5771 155.187 30.5771C156.507 30.5771 158.137 30.2977 160.087 29.6295C157.234 26.3156 154.742 22.2658 152.878 17.3804C152.593 16.6358 152.997 15.8148 153.778 15.5469C154.563 15.2733 155.426 15.6573 155.709 16.4034C158.411 23.48 162.45 28.5701 166.939 32.2062C171.428 35.8424 176.383 38.016 180.9 39.174C183.912 39.945 186.726 40.2614 189.041 40.2614C189.749 40.2614 190.408 40.232 191.015 40.179C192.889 33.529 193.921 25.4282 193.587 15.476C193.562 14.7491 194.101 12.6361 193.551 11.0746C192.972 9.41333 189.615 10.2653 189.203 9.61339C188.132 7.9138 190.812 4.04062 185.61 4.56162C184.917 4.63077 184.039 4.87649 182.852 5.09285C170.947 7.24882 158.708 1.60824 143.609 11.5221L134.391 0.394409L133.712 2.84309C133.752 3.16516 133.77 3.48325 133.77 3.79206C133.769 5.00305 133.478 6.11874 132.975 7.12814C132.224 8.63808 130.985 9.90193 129.555 10.7791C128.125 11.6589 126.51 12.1403 125.065 12.1373C124.59 12.1373 124.133 12.0844 123.703 11.9844L121.789 11.331L122.7 13.4161C122.897 13.6631 123.073 14.0208 123.194 14.4755C123.314 14.9257 123.382 15.4688 123.382 16.0662C123.382 17.0286 123.212 18.1278 122.873 19.2372C122.372 20.9046 121.491 22.5835 120.305 23.8932C119.71 24.5495 119.042 25.1103 118.31 25.5428C117.575 25.9785 116.778 26.2801 115.908 26.4256L114.351 26.6892L115.315 27.881C116.733 29.6321 117.417 31.9484 117.415 34.2823C117.417 36.1556 116.974 38.0289 116.176 39.5917C115.776 40.3745 115.289 41.0764 114.731 41.6694C114.172 42.2596 113.542 42.7406 112.851 43.0865L111 44.0137L112.948 44.7422C113.886 45.094 114.621 45.5972 115.223 46.2197C116.123 47.1513 116.718 48.3742 117.083 49.7235C117.449 51.0671 117.58 52.5296 117.58 53.888C117.58 55.3066 117.437 56.6118 117.296 57.5549C117.225 58.0244 117.157 58.407 117.103 58.6689C117.077 58.7969 117.058 58.8985 117.04 58.9646C117.033 58.9985 117.027 59.0235 117.024 59.0396L117.021 59.0544L117.019 59.0588L116.803 59.9623L126.469 61.9165C129.516 70.0717 134.836 77.8313 142.059 84.2663C151.817 92.9616 180.124 102.062 202.679 92.5689C206.139 91.4697 208.506 89.8436 210.094 88.3204L210.118 88.3012H210.116C212.314 86.1794 213 84.2664 213 84.2664ZM178.959 43.6547C180.344 44.1579 183.149 44.8909 187.674 44.8863C191.491 44.8863 196.539 44.3684 203.007 42.7688C202.6 43.3944 202.157 44.1433 201.795 44.9881C201.368 45.9814 201.049 47.1173 201.048 48.3477C201.046 49.0363 201.153 49.7515 201.391 50.4741C199.914 50.3814 197.422 50.1401 194.331 49.5323C189.959 48.6701 184.395 47.0734 178.789 44.123L178.959 43.6547ZM178.149 45.8694C183.975 48.8889 189.71 50.5019 194.185 51.367C196.644 51.8379 198.719 52.0852 200.229 52.2146C199.946 52.584 199.703 52.9828 199.496 53.3903C198.896 54.5837 198.549 55.8831 198.345 56.8969C198.303 57.1089 198.267 57.3061 198.236 57.4886C196.808 56.9676 194.144 55.9434 191.07 54.491C188.836 53.436 186.385 52.1587 184.036 50.6944C181.864 49.336 179.779 47.8117 178.038 46.1695L178.149 45.8694ZM167.381 12.4226C170.434 11.6794 173.546 13.4305 174.329 16.3356C175.11 19.2418 173.27 22.1982 170.216 22.9427C167.16 23.6888 164.048 21.9364 163.268 19.0313C162.484 16.1266 164.325 13.1687 167.381 12.4226ZM128.82 13.2026C130.646 12.4683 132.348 11.2469 133.609 9.64143C134.599 8.38175 135.313 6.87484 135.576 5.20178L142.05 12.5905C139.48 14.4388 136.825 16.7491 134.072 19.6347C133.977 19.7378 133.886 19.8422 133.788 19.9422L126.222 13.8854C127.098 13.7721 127.973 13.5425 128.82 13.2026ZM119.073 58.5586C119.251 57.5609 119.495 55.8494 119.498 53.888C119.495 51.9353 119.26 49.7322 118.417 47.7414C117.997 46.7466 117.42 45.8018 116.636 44.9866C116.614 44.9646 116.588 44.9396 116.564 44.9189L123.509 45.3221C123.421 50.1694 124.198 55.096 125.767 59.9094L119.073 58.5586ZM123.583 43.5003L115.99 43.0558C116.046 43.0013 116.103 42.9469 116.158 42.8895C117.196 41.7873 117.985 40.4334 118.519 38.9604C119.053 37.4874 119.331 35.8879 119.333 34.2825C119.331 32.624 119.034 30.9479 118.39 29.4042L126.016 32.2722C124.628 35.885 123.826 39.6624 123.583 43.5003ZM118.542 27.5016C119.135 27.2191 119.693 26.8864 120.204 26.5039C121.901 25.231 123.158 23.4753 124.007 21.6213C124.852 19.7641 125.293 17.807 125.296 16.0662C125.296 15.8794 125.292 15.6967 125.281 15.5143L132.546 21.3328C130.086 24.2216 128.154 27.3233 126.717 30.5741L118.542 27.5016ZM182.55 69.5452C183.373 67.1098 185.035 65.3865 186.872 64.1696C186.747 64.3669 186.62 64.5683 186.487 64.7759C184.981 67.16 183.072 70.2162 181.741 72.3544C182.075 71.464 182.351 70.5311 182.55 69.5452ZM182.888 74.0953C183.705 72.7826 184.871 70.9094 186.052 69.0244C186.886 67.691 187.728 66.3535 188.446 65.219C189.166 64.0846 189.764 63.1426 190.119 62.6157L190.03 62.5599C190.922 62.2139 191.77 61.9595 192.497 61.777C191.928 63.2324 191.124 64.8215 190.216 66.4006C188.686 69.07 186.86 71.7201 185.378 73.7582C184.641 74.7766 183.982 75.6388 183.488 76.282C183.423 75.552 183.213 74.7809 182.888 74.0953ZM184.381 78.1964C185.107 77.2766 186.982 74.8692 188.975 71.9247C190.033 70.3648 191.123 68.6549 192.094 66.9302C192.853 65.5911 193.535 64.2403 194.081 62.938C194.369 63.9033 194.659 65.1055 194.839 66.4683L194.816 66.4624C194.434 67.8869 193.71 69.4923 192.809 71.1006C191.457 73.5169 189.712 75.9479 188.155 77.8932C187.59 78.5982 187.053 79.2369 186.567 79.7944C186.015 79.0557 185.297 78.4773 184.381 78.1964ZM187.514 81.5529C188.783 80.1506 190.513 78.0492 192.16 75.677C193.125 74.2895 194.06 72.8076 194.851 71.3213C194.877 71.2683 194.905 71.2169 194.928 71.1669C194.702 73.3845 194.048 75.7388 192.675 78.0257L190.485 81.6677C190.396 81.7751 190.3 81.881 190.205 81.9854C189.534 82.7287 188.785 83.3938 188.089 83.9501C188.005 83.2027 187.819 82.3623 187.514 81.5529ZM188.303 86.1074C188.622 85.8838 188.964 85.6246 189.325 85.3422C190.081 84.7416 190.902 84.0133 191.657 83.176C192.288 82.4812 192.873 81.7073 193.337 80.861L194.8 80.215C197.012 79.2291 199.14 78.7287 201.122 78.7287C202.722 78.7287 204.133 79.0554 205.362 79.5557C203.188 79.6427 201.173 80.0619 199.363 80.6536C196.316 81.6543 193.846 83.1434 192.132 84.3839C191.174 85.0728 190.453 85.6877 189.995 86.1013C189.456 86.0265 188.888 86.0265 188.303 86.1074ZM193.336 87.9704C192.992 87.5173 192.548 87.1244 192.026 86.811C192.772 86.1958 193.842 85.3909 195.18 84.5889C196.543 83.775 198.179 82.9672 200.033 82.3624C201.886 81.7606 203.949 81.3635 206.174 81.3635C206.953 81.3635 207.753 81.4135 208.571 81.5207C209.353 82.1728 209.976 82.8465 210.451 83.4279C208.223 83.5943 205.959 84.0033 203.778 84.5256C199.945 85.4511 196.364 86.7447 193.733 87.8071C193.597 87.8615 193.466 87.9129 193.336 87.9704ZM208.963 87.2037L208.762 87.0111C208.395 87.3627 207.912 87.6997 207.343 88.0117C206.352 88.5578 205.105 89.0196 203.805 89.3891C201.877 89.9381 199.83 90.2867 198.258 90.4957C196.882 90.0749 195.225 90.1338 194.1 90.1721C194.1 89.9984 194.088 89.8277 194.061 89.6572C195.072 89.2407 196.243 88.783 197.529 88.3238C199.587 87.5864 201.935 86.8462 204.362 86.268C206.439 85.7707 208.574 85.3984 210.629 85.2423C210.247 85.8073 209.706 86.487 208.963 87.2037Z" fill="black"/>
<path d="M138.305 45.9445C137.383 46.4905 136.34 47.0113 135.249 47.369C134.44 47.6293 133.598 47.8002 132.746 47.8045C132.295 47.8045 131.842 47.7545 131.399 47.6382C131.251 47.6014 131.109 47.5529 130.974 47.4968C130.442 49.3143 130.186 51.1713 130.186 52.8887C130.186 54.0572 130.305 55.1608 130.525 56.1378C130.74 57.112 131.067 57.9596 131.46 58.6174C131.721 59.0531 132.012 59.4062 132.315 59.6696C132.724 60.0168 133.137 60.2067 133.606 60.27C133.73 60.2847 133.857 60.2934 133.98 60.2934C134.325 60.2934 134.667 60.2317 135.019 60.1156C135.365 59.9992 135.712 59.83 136.054 59.6124C136.739 59.1812 137.389 58.5719 137.939 57.945C138.533 57.2739 139.003 56.5853 139.319 56.0938C138.789 55.7451 138.364 55.2817 138.053 54.7576C137.811 54.3427 137.635 53.888 137.507 53.4099C137.34 52.7682 137.264 52.078 137.264 51.3524C137.264 50.0973 137.485 48.7258 137.88 47.3087C138.004 46.8584 138.148 46.4037 138.305 45.9445Z" fill="black"/>
<path d="M140.586 69.5069C141.066 68.9992 141.345 68.3368 141.49 67.7719C141.587 67.3981 141.626 67.0774 141.639 66.8906C141.646 66.786 141.646 66.7272 141.646 66.7272C141.648 66.614 141.674 66.508 141.713 66.4063C141.408 66.0782 141.131 65.7146 140.879 65.3247C139.844 63.7134 139.257 61.6209 139.228 59.3164C138.887 59.6889 138.508 60.0625 138.098 60.4084C137.396 60.9957 136.593 61.5179 135.667 61.8342C135.271 61.9682 134.85 62.0608 134.412 62.0976C134.412 62.1152 134.412 62.1285 134.412 62.1417C134.412 63.2174 134.494 64.4152 134.689 65.5557C134.884 66.7005 135.198 67.7893 135.624 68.6341C135.909 69.1977 136.243 69.6496 136.6 69.9555C136.803 70.1321 137.015 70.2645 137.236 70.3572C137.49 70.4602 137.762 70.5176 138.092 70.5192C138.168 70.5192 138.244 70.5161 138.326 70.5102H138.323C138.892 70.4617 139.334 70.3322 139.698 70.1615C140.059 69.9838 140.346 69.7613 140.586 69.5069Z" fill="black"/>
<path d="M149.303 35.7557C149.304 36.9284 149.609 37.9349 150.165 38.7384C150.725 39.5434 151.535 40.1659 152.654 40.5528C153.397 40.8103 154.284 40.9575 155.31 40.9575C157.034 40.959 159.156 40.5337 161.629 39.5404C160.836 38.7971 160.26 37.8554 159.912 36.8077C159.618 35.9307 159.477 34.9698 159.477 33.9602C159.477 33.223 159.554 32.4548 159.706 31.6763C158.022 32.1723 156.521 32.3989 155.186 32.3989C153.369 32.4033 151.85 31.9649 150.686 31.1849C150.514 31.0716 150.355 30.9481 150.2 30.8215C150.429 31.0923 150.476 31.4604 150.324 31.7752C149.626 33.2024 149.303 34.5649 149.303 35.7557Z" fill="black"/>
<path d="M144.385 44.7128C143.226 44.7128 142.106 44.5362 141.086 44.1711C140.518 45.3795 140.054 46.6022 139.734 47.7721C139.373 49.0698 139.183 50.3016 139.183 51.3522C139.183 52.0365 139.263 52.6412 139.418 53.1372C139.568 53.6362 139.786 54.0187 140.052 54.2997C140.235 54.4865 140.434 54.6308 140.679 54.7441C141.004 54.8927 141.413 54.9855 141.949 54.9883C142.729 54.9898 143.774 54.7809 145.072 54.2599C146.191 53.8169 147.494 53.1431 148.981 52.2189C148.103 51.0182 147.642 49.504 147.642 47.8588C147.642 46.6405 147.894 45.3469 148.422 44.0387C147.084 44.4803 145.708 44.7128 144.385 44.7128Z" fill="black"/>
</g>
<defs>
<clipPath id="clip0_18_2">
<rect width="102" height="97" fill="white" transform="translate(111)"/>
</clipPath>
</defs>
</svg>
